<?xml version="1.0" encoding="utf-8"?>
<!-- Generator: Adobe Illustrator 27.0.1, SVG Export Plug-In . SVG Version: 6.00 Build 0)  -->
<svg version="1.1" id="Layer_1" xmlns="http://www.w3.org/2000/svg" xmlns:xlink="http://www.w3.org/1999/xlink" x="0px" y="0px"
	 viewBox="0 0 2500 2289.8" style="enable-background:new 0 0 2500 2289.8;" xml:space="preserve">
<style type="text/css">
	.st0{fill:#FFFFFF;}
	.st1{fill:#1A1AAA;stroke:#000000;stroke-width:66.6667;stroke-linecap:round;stroke-linejoin:round;stroke-miterlimit:66.6667;}
	.st2{stroke:#FFFFFF;stroke-miterlimit:10;}
	.st3{fill:#FF4500;}
</style>
<path class="st0" d="M1619.9,1866.1c-93.4,93.3-243.7,111.2-369.9,111.2c-126.1,0-276.6-18-369.8-111.2 M1249,838.7 M2315.4,1544.4
	c0,385.9-479.3,698.7-1070.5,698.7c-591.3,0-1070.5-312.8-1070.5-698.7c0-385.9,479.3-698.7,1070.5-698.7
	C1836.1,845.7,2315.4,1158.5,2315.4,1544.4L2315.4,1544.4z M188.3,1435.8c-85.9-37.7-141.4-122.7-141.4-216.5
	c-0.1-130.5,105.7-236.4,236.2-236.5c69.9,0,136.2,30.8,181.1,84.3 M2031.9,1072c81.4-102.1,230.1-118.8,332.2-37.4
	c56.2,44.8,89,112.8,89,184.7c0,97.6-59.9,185.1-150.9,220.4"/>
<path d="M1310.8,800.3c277.1,10.8,527.3,89.3,714.1,211c52.2-48.3,120.7-75.1,191.9-75c156.3,0.2,282.9,126.8,283.1,283.1
	c0.5,102.2-54.6,196.7-143.8,246.6c4.1,25.8,6.2,52,6.2,78.5c-0.1,411-501.3,745.4-1117.4,745.4h0
	c-616.1,0-1117.2-334.4-1117.2-745.4c0-28.4,2.4-56.5,7.1-84.1c-83.6-51.6-134.5-142.8-134.5-241c0.2-156.2,126.8-282.9,283-283.1
	c69.7,0,136.2,25.5,187.6,71.1c193.8-124.4,454.4-202.6,742-208.1 M230.4,1456.1c-6.2,29-9.3,58.7-9.3,88.4
	c0,359.6,459.3,652,1023.8,652s1023.8-292.5,1023.8-652c0-28.6-2.9-56.7-8.5-84.4c-3-6.3-4.6-13.3-4.6-20.3
	c-31.2-122.7-116.5-234.1-239.6-323.8c-7.8-2.8-14.8-7.7-20-14.2c-187.1-128.7-454.5-209.3-751-209.3
	c-293.5,0-558.6,79.1-745.5,205.5c-5.1,5.8-11.5,10.3-18.7,13c-125.8,89.8-213.2,201.9-245.7,325.7c-0.1,6.2-1.4,12.3-3.9,17.9
	C230.8,1455.1,230.6,1455.6,230.4,1456.1z M2103,1067.6c108.3,86.6,187.8,189.8,228.4,303c47.4-35.8,75.2-91.8,75-151.3
	c-0.1-104.7-85-189.6-189.7-189.7C2175.7,1029.6,2135.8,1042.9,2103,1067.6L2103,1067.6z M283.2,1029.7
	c-104.7,0.1-189.5,85-189.6,189.7c0,56.7,25.2,109.3,67.1,144.8c42-112.3,122.3-214.6,231-300.4
	C359.8,1041.5,322,1029.7,283.2,1029.7z M1249.9,2024.1c-187,0-318.8-40.9-402.9-124.9c-18.2-18.2-18.2-47.8,0-66.1
	c18.2-18.2,47.8-18.2,66.1,0c65.6,65.6,175.7,97.6,336.8,97.6c161,0,271.2-31.9,336.9-97.6c18.2-18.2,47.8-18.2,66,0
	c18.2,18.2,18.2,47.8,0,66l0,0C1568.7,1983.2,1437,2024.1,1249.9,2024.1L1249.9,2024.1z"/>
<path class="st1" d="M1277.6,1136.7c471,0,852.8-61.5,852.8-137.4c0-49.4-140.7-92.8-383.8-117l-341.1-707.6L893.8,37.2l127.9,206.2
	L808.5,882.2c-243.1,24.2-383.8,67.6-383.8,117C424.8,1075.1,806.6,1136.7,1277.6,1136.7z"/>
<circle class="st2" cx="1627.2" cy="1407.4" r="225.1"/>
<path class="st3" d="M1628.6,1233.8c-95.2,0-175.1,79.7-175.1,174.9c0,95.1,79.9,172.2,175.1,172.2c95.2,0,172.2-77.1,172.2-172.2
	C1800.9,1313.5,1723.8,1233.8,1628.6,1233.8L1628.6,1233.8z M874,1233.8c-95.1,0-174.9,79.8-174.9,174.9
	c0,95.1,79.8,172.2,174.9,172.2s172.2-77.2,172.2-172.2C1046.3,1313.6,969.1,1233.8,874,1233.8L874,1233.8z"/>
<rect x="943" y="1831.3" transform="matrix(0.9606 0.2781 -0.2781 0.9606 571.5674 -194.5061)" class="st0" width="56.9" height="173.1"/>
<rect x="1088.6" y="1890.9" transform="matrix(0.9883 0.1525 -0.1525 0.9883 314.6063 -147.2176)" class="st0" width="56.9" height="173.1"/>
</svg>
